# xmcd
#
# Track frame offsets: 
#        183
#        19290
#        39070
#        60905
#        79685
#        96125
#        114150
#        132078
#        154885
#        174103
#
# Disc length: 2557 seconds
#
# Revision: 0
# Processed by: cddbd v1.5.2PL0 Copyright (c) Steve Scherf et al.
# Submitted via: ExactAudioCopy v0.99pb4
#
DISCID=6509fb0a
DTITLE=Cesaria Evora - Destino Di Belta
DYEAR=1997
DGENRE=Latin
TTITLE0=Bitina
TTITLE1=Nova Sintra
TTITLE2=Emigranti
TTITLE3=Tanha
TTITLE4=Salamansa
TTITLE5=Odji Maguado
TTITLE6=T'Imbutchode
TTITLE7=Distino di Bilita
TTITLE8=Nova Sintra (version piano)
TTITLE9=Pontero
EXTD=
EXTT0=
EXTT1=
EXTT2=
EXTT3=
EXTT4=
EXTT5=
EXTT6=
EXTT7=
EXTT8=
EXTT9=
PLAYORDER=
